<svg xmlns="http://www.w3.org/2000/svg" xmlns:xlink="http://www.w3.org/1999/xlink" width="500" zoomAndPan="magnify" viewBox="0 0 375 374.999991" height="500" preserveAspectRatio="xMidYMid meet" version="1.0"><defs><g/><clipPath id="3254d2ca22"><rect x="0" width="47" y="0" height="48"/></clipPath></defs><rect x="-37.5" width="450" fill="#ffffff" y="-37.499999" height="449.999989" fill-opacity="1"/><rect x="-37.5" width="450" fill="#4e6688" y="-37.499999" height="449.999989" fill-opacity="1"/><g fill="#000000" fill-opacity="1"><g transform="translate(48.506255, 206.624986)"><g><path d="M 42.25 -25.140625 C 42.289062 -24.628906 42.3125 -24.117188 42.3125 -23.609375 L 42.3125 0 L 28.6875 0 L 28.6875 -30.78125 C 28.457031 -30.882812 28.179688 -30.9375 27.859375 -30.9375 L 26.84375 -30.9375 C 25.195312 -30.9375 23.273438 -29.804688 21.078125 -27.546875 C 20.398438 -26.847656 19.753906 -26.078125 19.140625 -25.234375 L 19.140625 0 L 5.484375 0 L 5.484375 -33.890625 L 19.140625 -33.890625 L 19.140625 -28.78125 C 22.710938 -32.570312 26.710938 -34.46875 31.140625 -34.46875 C 36.847656 -34.46875 40.367188 -32.351562 41.703125 -28.125 C 43.523438 -30.21875 45.53125 -31.796875 47.71875 -32.859375 C 49.90625 -33.929688 52.113281 -34.46875 54.34375 -34.46875 C 58.125 -34.46875 60.921875 -33.566406 62.734375 -31.765625 C 64.554688 -29.972656 65.46875 -27.253906 65.46875 -23.609375 L 65.46875 0 L 51.859375 0 L 51.859375 -30.8125 C 51.671875 -30.894531 51.195312 -30.9375 50.4375 -30.9375 C 49.675781 -30.9375 48.972656 -30.796875 48.328125 -30.515625 C 47.679688 -30.234375 47.019531 -29.835938 46.34375 -29.328125 C 44.851562 -28.242188 43.488281 -26.847656 42.25 -25.140625 Z M 42.25 -25.140625 "/></g></g></g><g fill="#000000" fill-opacity="1"><g transform="translate(118.861563, 206.624986)"><g><path d="M 34.9375 -7.71875 C 35.769531 -7.71875 36.1875 -7.332031 36.1875 -6.5625 C 36.1875 -6 35.816406 -5.320312 35.078125 -4.53125 C 31.734375 -1.101562 27.148438 0.609375 21.328125 0.609375 C 16.097656 0.609375 11.695312 -0.96875 8.125 -4.125 C 4.425781 -7.40625 2.578125 -11.550781 2.578125 -16.5625 C 2.578125 -21.6875 4.242188 -25.898438 7.578125 -29.203125 C 11.117188 -32.710938 15.816406 -34.46875 21.671875 -34.46875 C 26.367188 -34.46875 30.316406 -33.039062 33.515625 -30.1875 C 36.960938 -27.113281 38.6875 -23.082031 38.6875 -18.09375 C 38.6875 -17.375 38.664062 -16.613281 38.625 -15.8125 L 17.671875 -15.8125 L 17.671875 -2.1875 C 19.117188 -1.894531 20.738281 -1.75 22.53125 -1.75 C 26.34375 -1.75 29.59375 -3.003906 32.28125 -5.515625 C 32.832031 -6.066406 33.222656 -6.503906 33.453125 -6.828125 C 33.941406 -7.421875 34.4375 -7.71875 34.9375 -7.71875 Z M 26.46875 -31.546875 C 25.09375 -31.953125 23.535156 -32.15625 21.796875 -32.15625 C 20.066406 -32.15625 18.691406 -32.035156 17.671875 -31.796875 L 17.671875 -18.125 L 26.46875 -18.125 Z M 26.46875 -31.546875 "/></g></g></g><g fill="#000000" fill-opacity="1"><g transform="translate(160.116367, 206.624986)"><g><path d="M 42.25 -25.140625 C 42.289062 -24.628906 42.3125 -24.117188 42.3125 -23.609375 L 42.3125 0 L 28.6875 0 L 28.6875 -30.78125 C 28.457031 -30.882812 28.179688 -30.9375 27.859375 -30.9375 L 26.84375 -30.9375 C 25.195312 -30.9375 23.273438 -29.804688 21.078125 -27.546875 C 20.398438 -26.847656 19.753906 -26.078125 19.140625 -25.234375 L 19.140625 0 L 5.484375 0 L 5.484375 -33.890625 L 19.140625 -33.890625 L 19.140625 -28.78125 C 22.710938 -32.570312 26.710938 -34.46875 31.140625 -34.46875 C 36.847656 -34.46875 40.367188 -32.351562 41.703125 -28.125 C 43.523438 -30.21875 45.53125 -31.796875 47.71875 -32.859375 C 49.90625 -33.929688 52.113281 -34.46875 54.34375 -34.46875 C 58.125 -34.46875 60.921875 -33.566406 62.734375 -31.765625 C 64.554688 -29.972656 65.46875 -27.253906 65.46875 -23.609375 L 65.46875 0 L 51.859375 0 L 51.859375 -30.8125 C 51.671875 -30.894531 51.195312 -30.9375 50.4375 -30.9375 C 49.675781 -30.9375 48.972656 -30.796875 48.328125 -30.515625 C 47.679688 -30.234375 47.019531 -29.835938 46.34375 -29.328125 C 44.851562 -28.242188 43.488281 -26.847656 42.25 -25.140625 Z M 42.25 -25.140625 "/></g></g></g><g fill="#000000" fill-opacity="1"><g transform="translate(230.471674, 206.624986)"><g><path d="M 2.578125 -17.140625 C 2.578125 -19.679688 3.035156 -21.992188 3.953125 -24.078125 C 4.867188 -26.160156 6.132812 -27.972656 7.75 -29.515625 C 11.21875 -32.816406 15.578125 -34.46875 20.828125 -34.46875 C 26.171875 -34.46875 30.523438 -32.753906 33.890625 -29.328125 C 37.109375 -26.085938 38.71875 -21.992188 38.71875 -17.046875 C 38.71875 -12.066406 37.066406 -7.910156 33.765625 -4.578125 C 30.359375 -1.117188 26 0.609375 20.6875 0.609375 C 15.507812 0.609375 11.21875 -1.03125 7.8125 -4.3125 C 4.320312 -7.695312 2.578125 -11.972656 2.578125 -17.140625 Z M 19.8125 -1.78125 C 19.976562 -1.757812 20.144531 -1.75 20.3125 -1.75 L 20.75 -1.75 C 25.03125 -1.75 28.617188 -3.070312 31.515625 -5.71875 C 34.609375 -8.570312 36.15625 -12.316406 36.15625 -16.953125 C 36.15625 -21.472656 34.703125 -25.144531 31.796875 -27.96875 C 28.941406 -30.757812 25.25 -32.15625 20.71875 -32.15625 L 20.25 -32.15625 C 20.101562 -32.15625 19.957031 -32.144531 19.8125 -32.125 Z M 19.8125 -1.78125 "/></g></g></g><g fill="#000000" fill-opacity="1"><g transform="translate(271.82167, 206.624986)"><g><path d="M 5.484375 -33.890625 L 19.140625 -33.890625 L 19.140625 -23.9375 C 20.597656 -27.550781 22.164062 -30.207031 23.84375 -31.90625 C 25.53125 -33.613281 27.21875 -34.46875 28.90625 -34.46875 C 29.863281 -34.46875 30.625 -34.21875 31.1875 -33.71875 C 31.75 -33.21875 32.03125 -32.660156 32.03125 -32.046875 C 32.03125 -31.441406 31.941406 -30.957031 31.765625 -30.59375 C 31.597656 -30.238281 31.378906 -29.929688 31.109375 -29.671875 C 30.535156 -29.140625 29.992188 -28.875 29.484375 -28.875 C 28.679688 -28.875 28.085938 -28.960938 27.703125 -29.140625 C 27.046875 -29.429688 26.460938 -29.578125 25.953125 -29.578125 C 25.453125 -29.578125 24.8125 -29.171875 24.03125 -28.359375 C 23.25 -27.546875 22.492188 -26.421875 21.765625 -24.984375 C 20.015625 -21.460938 19.140625 -17.648438 19.140625 -13.546875 L 19.140625 0 L 5.484375 0 Z M 5.484375 -33.890625 "/></g></g></g><g fill="#000000" fill-opacity="1"><g transform="translate(302.44544, 206.624986)"><g><path d="M 12.15625 -39.453125 C 9.976562 -39.453125 8.273438 -39.9375 7.046875 -40.90625 C 5.816406 -41.882812 5.203125 -43.164062 5.203125 -44.75 C 5.203125 -46.082031 5.878906 -47.222656 7.234375 -48.171875 C 8.671875 -49.191406 10.191406 -49.703125 11.796875 -49.703125 C 13.410156 -49.703125 14.65625 -49.539062 15.53125 -49.21875 C 16.414062 -48.90625 17.164062 -48.492188 17.78125 -47.984375 C 19 -46.953125 19.609375 -45.75 19.609375 -44.375 C 19.609375 -43 18.910156 -41.832031 17.515625 -40.875 C 16.117188 -39.925781 14.332031 -39.453125 12.15625 -39.453125 Z M 5.484375 -33.890625 L 19.140625 -33.890625 L 19.140625 0 L 5.484375 0 Z M 5.484375 -33.890625 "/></g></g></g><g transform="matrix(1, 0, 0, 1, 314, 313)"><g clip-path="url(#3254d2ca22)"><g fill="#000000" fill-opacity="1"><g transform="translate(0.817347, 39.394332)"><g><path d="M 16.0625 -30.53125 L 30.96875 0 L 29.578125 0 L 23.921875 -11.375 L 7.984375 -11.375 L 2.421875 0 L 1.1875 0 Z M 15.9375 -27.78125 L 8.5 -12.515625 L 23.453125 -12.515625 Z M 15.9375 -27.78125 "/></g></g></g><g fill="#000000" fill-opacity="1"><g transform="translate(32.979242, 39.394332)"><g><path d="M 3.1875 -29.8125 L 4.484375 -29.8125 L 4.484375 0 L 3.1875 0 Z M 3.1875 -29.8125 "/></g></g></g><g fill="#000000" fill-opacity="1"><g transform="translate(40.65198, 39.394332)"><g><path d="M 2.765625 0.28125 C 1.847656 0.28125 1.390625 -0.128906 1.390625 -0.953125 C 1.390625 -1.773438 1.847656 -2.1875 2.765625 -2.1875 C 3.679688 -2.1875 4.140625 -1.773438 4.140625 -0.953125 C 4.140625 -0.128906 3.679688 0.28125 2.765625 0.28125 Z M 2.765625 0.28125 "/></g></g></g></g></g></svg>