<svg xmlns="http://www.w3.org/2000/svg" xmlns:xlink="http://www.w3.org/1999/xlink" width="500" zoomAndPan="magnify" viewBox="0 0 375 374.999991" height="500" preserveAspectRatio="xMidYMid meet" version="1.0"><defs><g/><clipPath id="49e40f328d"><rect x="0" width="266" y="0" height="351"/></clipPath></defs><rect x="-37.5" width="450" fill="#ffffff" y="-37.499999" height="449.999989" fill-opacity="1"/><rect x="-37.5" width="450" fill="#bca88d" y="-37.499999" height="449.999989" fill-opacity="1"/><g transform="matrix(1, 0, 0, 1, 27, 0)"><g clip-path="url(#49e40f328d)"><g fill="#000000" fill-opacity="1"><g transform="translate(0.402721, 276.714311)"><g><path d="M 166.9375 0 L 97.1875 0 L 97.1875 -82.890625 C 97.1875 -87.359375 96.066406 -90.710938 93.828125 -92.953125 C 91.585938 -95.191406 88.957031 -96.3125 85.9375 -96.3125 C 82.925781 -96.3125 80.300781 -95.238281 78.0625 -93.09375 C 75.832031 -90.957031 74.71875 -87.648438 74.71875 -83.171875 L 74.71875 0 L 2.921875 0 L 2.921875 -86.09375 C 2.921875 -101.46875 5.300781 -114.40625 10.0625 -124.90625 C 14.832031 -135.414062 21.253906 -143.878906 29.328125 -150.296875 C 37.398438 -156.722656 46.347656 -161.394531 56.171875 -164.3125 C 66.003906 -167.226562 75.976562 -168.6875 86.09375 -168.6875 C 94.257812 -168.6875 102.332031 -167.273438 110.3125 -164.453125 C 118.289062 -161.628906 125.585938 -156.910156 132.203125 -150.296875 C 137.847656 -156.523438 144.800781 -161.097656 153.0625 -164.015625 C 161.332031 -166.929688 169.457031 -168.488281 177.4375 -168.6875 C 187.75 -168.6875 197.863281 -167.175781 207.78125 -164.15625 C 217.707031 -161.144531 226.707031 -156.378906 234.78125 -149.859375 C 242.863281 -143.335938 249.332031 -134.820312 254.1875 -124.3125 C 259.050781 -113.8125 261.484375 -101.070312 261.484375 -86.09375 L 261.484375 0 L 189.703125 0 L 189.703125 -83.171875 C 189.703125 -87.648438 188.53125 -90.957031 186.1875 -93.09375 C 183.851562 -95.238281 181.226562 -96.3125 178.3125 -96.3125 C 175.394531 -96.3125 172.769531 -95.191406 170.4375 -92.953125 C 168.101562 -90.710938 166.9375 -87.359375 166.9375 -82.890625 Z M 166.9375 0 "/></g></g></g></g></g><g fill="#000000" fill-opacity="1"><g transform="translate(291.827417, 275.725405)"><g><path d="M 8.09375 -16.75 C 8.09375 -19.289062 8.582031 -21.671875 9.5625 -23.890625 C 10.539062 -26.117188 11.863281 -28.066406 13.53125 -29.734375 C 15.195312 -31.398438 17.140625 -32.707031 19.359375 -33.65625 C 21.585938 -34.613281 23.972656 -35.09375 26.515625 -35.09375 C 29.054688 -35.09375 31.4375 -34.613281 33.65625 -33.65625 C 35.882812 -32.707031 37.832031 -31.398438 39.5 -29.734375 C 41.164062 -28.066406 42.472656 -26.117188 43.421875 -23.890625 C 44.378906 -21.671875 44.859375 -19.289062 44.859375 -16.75 C 44.859375 -14.207031 44.378906 -11.820312 43.421875 -9.59375 C 42.472656 -7.375 41.164062 -5.429688 39.5 -3.765625 C 37.832031 -2.097656 35.882812 -0.789062 33.65625 0.15625 C 31.4375 1.113281 29.054688 1.59375 26.515625 1.59375 C 23.972656 1.59375 21.585938 1.113281 19.359375 0.15625 C 17.140625 -0.789062 15.195312 -2.097656 13.53125 -3.765625 C 11.863281 -5.429688 10.539062 -7.375 9.5625 -9.59375 C 8.582031 -11.820312 8.09375 -14.207031 8.09375 -16.75 Z M 8.09375 -16.75 "/></g></g></g></svg>